<svg id="headphone" xmlns="http://www.w3.org/2000/svg" viewBox="0 0 883.36964 778.53845">
 <g id="layer1" stroke="#000" transform="matrix(.84979 0 0 .84979 -119.61 95.528)">
  <g id="g5" fill="none">
   <path id="path5313" d="m189.84 452.86c-5.3085-699.65 777.85-742.79 865.14 0.87239" stroke-width="8.2373"/>
   <g id="g8" stroke-width="5">
    <path id="path5855" d="m609.25-89.066c512.95 14.634 568.45 412.38 489.25 624.29" stroke-width="8.2373"/>
    <path id="path5857" d="m636.88-87.968c-193.37 23.683-367.62 295.41-364.4 472.66" stroke-width="8.2373"/>
    <path id="path5859" d="m1037.7 450.22c-60.201 113.06 18.694 187.86 18.694 187.86 56.313-43.535 59.578-173.6-18.694-187.86z"/>
    <path id="path5861" d="m1037.1 378.08c-190.42 4.3891-166.03 432.13 57.143 348.57" stroke-width="8.2373"/>
    <path id="path5863" d="m1094.2 725.93c62.786-38.486 89.524-210.46 33.225-309.73" stroke-width="8.2373"/>
   </g>
   <path id="path5865" stroke-width="10" d="m1031.4 363.79c-276.97-15.538-206.25 484.73 34.286 405.71 172.58-78.911 99.031-315.8 61.327-374.14"/>
   <path id="path5886" d="m186.79 462.36c-6.367 11.117-14.513 10.267-20.353 19.306-49.116 76.025-10.663 174.92 27.518 196.54" stroke-width="9.4141"/>
   <path id="path5890" stroke-width="10" d="m309.75 368.98c-241.03 56.98-137.09 389.07 2.77 406.42 254.13-6.65 177.19-431.12-2.77-406.42z"/>
  </g>
  <path id="path5892" d="m303.25 437.77c-147.54 60.42-62 311.38 49.71 273.77 103.86-26.85 109.98-301.84-49.71-273.77z" fill-rule="evenodd" stroke-width="9.4141" fill="#fff"/>
  <g id="g19" stroke-width="5.8838" fill="none">
   <g id="g21">
    <path id="path5894" d="m488.91-72.948 86.873-2.0203-157.58 32.325 103.04-4.0406-147.48 38.386 103.03-6.061-139.4 34.345 107.08-8.081-141.42 48.487 115.15-20.203-137.38 48.488 109.1-16.163-129.3 48.486 111.12-18.18-125.26 48.487 107.08-22.223-117.18 52.528 101.02-24.244-117.18 58.589 96.975-24.244-103.04 56.569 88.893-24.244-96.975 54.548 82.832-26.264-88.893 52.528 84.853-30.305-88.893 64.65 82.832-32.325-78.792 58.589 70.711-28.284-80.812 72.731 76.772-42.426"/>
    <path id="path5898" d="m1052.6 464.45-34.345 38.386"/>
    <path id="path5900" d="m1072.8 472.53-56.568 52.528"/>
    <path id="path5902" d="m1082.9 492.74-68.69 60.609"/>
    <path id="path5904" d="m1091 508.9-74.751 62.629"/>
    <path id="path5906" d="m1095 535.16-70.711 48.487"/>
    <path id="path5908" d="m1093 557.39-62.63 34.345"/>
    <path id="path5910" d="m1086.9 577.59-54.548 30.305 4.0406-2.0203"/>
   </g>
   <path id="path5912" d="m1086.9 597.79-42.426 24.244"/>
  </g>
 </g>
</svg>
